<?xml version="1.0" standalone="no"?>
<!DOCTYPE svg PUBLIC "-//W3C//DTD SVG 20010904//EN"
 "http://www.w3.org/TR/2001/REC-SVG-20010904/DTD/svg10.dtd">
<svg version="1.0" xmlns="http://www.w3.org/2000/svg"
 width="450.000000pt" height="450.000000pt" viewBox="0 0 450.000000 450.000000"
 preserveAspectRatio="xMidYMid meet">
<metadata>
Created by potrace 1.14, written by Peter Selinger 2001-2017
</metadata>
<g transform="translate(0.000000,450.000000) scale(0.100000,-0.100000)"
fill="#000000" stroke="none">
<path d="M2540 4138 l-23 -33 28 27 c16 15 26 30 23 33 -3 4 -16 -9 -28 -27z"/>
<path d="M2245 4044 c-34 -17 -53 -34 -40 -34 5 0 16 7 26 16 9 8 39 19 66 24
43 7 44 8 13 9 -19 0 -48 -6 -65 -15z"/>
<path d="M2355 4040 c3 -5 11 -10 16 -10 6 0 7 5 4 10 -3 6 -11 10 -16 10 -6
0 -7 -4 -4 -10z"/>
<path d="M2288 4033 c7 -3 16 -2 19 1 4 3 -2 6 -13 5 -11 0 -14 -3 -6 -6z"/>
<path d="M2248 4016 c-14 -10 -11 -15 26 -36 22 -13 48 -23 56 -21 8 2 12 0 8
-5 -4 -4 0 -13 10 -20 24 -19 31 -17 25 6 -3 11 -11 20 -19 20 -7 0 -19 12
-26 28 -9 17 -21 26 -33 25 -11 -1 -22 2 -25 7 -3 5 -13 3 -22 -4z m69 -35 c3
-23 2 -23 -14 -9 -10 8 -27 20 -37 26 -17 8 -15 10 14 8 27 -1 34 -6 37 -25z"/>
<path d="M2416 4004 c-5 -14 -4 -15 9 -4 17 14 19 20 6 20 -5 0 -12 -7 -15
-16z"/>
<path d="M1651 3886 c-31 -23 -120 -54 -264 -93 -120 -32 -55 -25 103 12 162
37 200 53 200 85 0 25 1 25 -39 -4z"/>
<path d="M3316 3794 c-9 -8 -16 -21 -16 -27 0 -7 4 -6 10 3 9 13 11 13 20 0 8
-12 10 -9 10 13 0 31 -3 33 -24 11z"/>
<path d="M1288 3763 c7 -3 16 -2 19 1 4 3 -2 6 -13 5 -11 0 -14 -3 -6 -6z"/>
<path d="M3291 3714 c0 -11 3 -14 6 -6 3 7 2 16 -1 19 -3 4 -6 -2 -5 -13z"/>
<path d="M3306 3694 c-3 -9 -3 -20 0 -25 8 -14 26 1 20 16 -3 8 0 16 7 19 7 2
5 5 -4 5 -9 1 -20 -6 -23 -15z"/>
<path d="M1935 3683 c-11 -2 -107 -33 -213 -69 -107 -35 -216 -66 -243 -70
-27 -4 -46 -10 -43 -15 7 -12 -9 -11 -99 6 -84 16 -147 43 -188 81 l-25 24
-65 -26 c-74 -30 -174 -122 -184 -170 -19 -96 -36 -131 -85 -179 -38 -37 -55
-63 -66 -103 -9 -30 -13 -56 -10 -60 4 -3 37 9 74 27 37 19 94 42 127 52 73
23 251 43 317 37 36 -4 48 -2 48 8 0 9 12 14 34 14 40 0 234 54 356 100 47 18
115 38 151 47 l67 14 57 -30 c47 -25 70 -31 122 -31 40 0 62 4 58 10 -3 6 -15
10 -25 10 -13 0 -18 6 -15 20 2 11 1 19 -3 19 -23 -4 -32 5 -41 39 -15 51 -13
61 6 37 12 -15 14 -16 10 -3 -14 42 -26 97 -29 138 -2 25 -7 48 -13 52 -6 5
-6 8 2 8 6 0 18 -9 26 -20 8 -11 17 -17 20 -13 4 3 -5 17 -19 30 -24 22 -59
28 -109 16z m-605 -167 c0 -11 -19 -15 -25 -6 -3 5 1 10 9 10 9 0 16 -2 16 -4z"/>
<path d="M2075 3630 c-3 -6 1 -7 9 -4 18 7 21 14 7 14 -6 0 -13 -4 -16 -10z"/>
<path d="M3329 3599 c12 -20 21 -44 21 -53 0 -9 4 -16 9 -16 5 0 8 11 5 25 -4
23 -3 24 15 13 15 -9 17 -14 8 -20 -7 -4 -7 -8 -2 -8 6 0 16 4 24 9 11 7 7 13
-18 25 -17 9 -31 14 -31 11 0 -3 -12 7 -26 22 l-26 28 21 -36z"/>
<path d="M3525 3580 c18 -19 75 -28 75 -12 0 5 -14 9 -32 9 -18 0 -34 5 -36
11 -2 7 -8 12 -14 12 -6 0 -3 -9 7 -20z"/>
<path d="M702 3502 c-85 -112 -131 -185 -125 -196 3 -6 2 -8 -2 -4 -11 11 -68
-90 -59 -104 4 -6 3 -8 -3 -5 -6 4 -25 -24 -43 -61 -38 -78 -95 -216 -77 -188
26 42 80 96 110 111 18 9 52 18 77 21 92 11 85 2 86 111 1 86 4 104 28 153 16
30 38 65 50 78 16 18 21 37 22 83 1 33 -2 61 -6 64 -4 2 -30 -26 -58 -63z
m-191 -355 c-10 -9 -11 -8 -5 6 3 10 9 15 12 12 3 -3 0 -11 -7 -18z"/>
<path d="M2358 3563 c6 -2 18 -2 25 0 6 3 1 5 -13 5 -14 0 -19 -2 -12 -5z"/>
<path d="M2430 3559 l35 -10 -3 -55 c-3 -45 -8 -58 -28 -71 -14 -9 -23 -22
-20 -29 3 -8 0 -14 -7 -14 -8 0 -7 -3 2 -9 11 -7 9 -10 -10 -14 -21 -4 -21 -5
6 -6 22 -2 25 -4 13 -9 -9 -4 49 -7 130 -8 138 0 186 -7 289 -40 13 -4 14 -3
5 3 -8 6 -13 40 -15 96 -1 67 -5 87 -17 91 -10 2 -9 4 4 5 20 1 20 1 0 16 -19
14 -19 14 1 15 43 2 -21 18 -116 29 -135 15 -314 22 -269 10z"/>
<path d="M3017 3539 c7 -7 15 -10 18 -7 3 3 -2 9 -12 12 -14 6 -15 5 -6 -5z"/>
<path d="M3436 3535 c-4 -11 -14 -14 -33 -9 l-28 6 29 -16 c19 -11 33 -13 45
-6 9 5 11 10 4 10 -7 0 -10 7 -7 15 4 8 4 15 1 15 -3 0 -7 -7 -11 -15z"/>
<path d="M3534 3539 c-3 -6 -3 -13 0 -16 3 -4 6 -1 6 5 0 6 7 9 15 6 8 -4 15
-4 15 -1 0 11 -30 16 -36 6z"/>
<path d="M3039 3513 c-13 -15 -12 -15 9 -4 23 12 28 21 13 21 -5 0 -15 -7 -22
-17z"/>
<path d="M3543 3494 c-3 -8 -1 -20 5 -26 7 -7 10 -2 9 16 -2 30 -5 32 -14 10z"/>
<path d="M2935 3480 c-12 -38 34 -85 91 -92 21 -2 28 -8 26 -20 -2 -12 6 -20
23 -24 14 -3 25 -10 25 -14 0 -13 70 -42 86 -36 15 6 20 36 6 36 -5 0 -19 20
-32 45 -12 24 -27 42 -31 39 -5 -3 -9 -1 -9 5 0 5 6 12 13 15 8 3 7 5 -3 4 -8
-1 -43 12 -77 30 -72 37 -109 41 -118 12z"/>
<path d="M3130 3470 c12 -16 29 -30 38 -29 12 0 11 3 -5 9 -13 5 -23 12 -23
16 0 3 7 4 15 0 26 -9 16 10 -10 22 -37 17 -39 15 -15 -18z"/>
<path d="M3286 3485 c-16 -12 -17 -15 -4 -15 9 0 18 7 22 15 7 18 6 18 -18 0z"/>
<path d="M3488 3473 c6 -2 18 -2 25 0 6 3 1 5 -13 5 -14 0 -19 -2 -12 -5z"/>
<path d="M2995 3280 c3 -4 -7 -16 -22 -25 l-26 -18 24 -18 c35 -27 56 -24 64
11 8 35 3 46 -25 53 -11 3 -18 2 -15 -3z"/>
<path d="M1518 3253 c7 -3 16 -2 19 1 4 3 -2 6 -13 5 -11 0 -14 -3 -6 -6z"/>
<path d="M1455 3240 c3 -5 10 -10 16 -10 5 0 9 5 9 10 0 6 -7 10 -16 10 -8 0
-12 -4 -9 -10z"/>
<path d="M1399 3236 c-2 -2 -24 -7 -49 -11 -50 -7 -65 -15 -30 -15 50 0 159
-40 179 -67 37 -46 21 -140 -32 -200 -11 -13 -18 -26 -15 -29 4 -3 14 6 23 20
10 14 22 23 28 19 6 -4 8 0 4 10 -3 9 -3 19 2 21 10 7 8 -70 -2 -80 -4 -5 -5
-1 -2 8 4 9 1 19 -5 23 -7 4 -14 -1 -17 -13 -3 -12 -12 -19 -21 -17 -25 4 -56
-26 -40 -38 10 -6 9 -7 -2 -4 -8 2 -33 -8 -55 -24 -22 -15 -70 -40 -107 -54
-65 -26 -67 -27 -57 -53 16 -42 39 -173 39 -223 0 -56 17 -109 35 -109 8 0 23
-13 34 -29 21 -29 76 -66 163 -108 61 -29 105 -78 140 -156 33 -74 34 -92 8
-134 -21 -35 -68 -63 -140 -82 -38 -11 -48 -19 -67 -57 -13 -24 -23 -60 -23
-80 0 -19 -5 -44 -10 -55 -13 -23 -12 -23 33 -4 49 20 192 20 252 -1 25 -8 73
-33 106 -54 87 -56 133 -61 208 -21 76 39 134 52 244 52 87 1 90 0 189 -50
179 -92 259 -101 422 -46 58 19 118 35 134 35 17 0 73 -11 126 -25 53 -14 98
-25 100 -25 1 0 3 33 3 73 0 39 8 104 18 143 21 80 17 104 -19 104 -14 0 -33
11 -45 26 -11 14 -44 37 -73 51 -43 21 -60 24 -98 18 -73 -11 -96 -7 -157 23
-124 61 -182 111 -183 156 -1 11 -9 36 -18 55 -13 27 -28 38 -67 51 -27 10
-73 29 -101 43 -49 25 -51 25 -62 6 -7 -10 -19 -19 -26 -19 -8 0 -16 -5 -18
-12 -2 -6 -12 -12 -21 -14 -9 -1 -15 2 -12 6 3 5 1 11 -4 14 -13 8 -42 -4 -35
-15 3 -5 1 -9 -5 -9 -5 0 -12 6 -14 13 -4 10 -6 10 -6 0 -1 -16 -91 -18 -91
-2 0 17 -61 70 -83 72 -11 1 -24 13 -30 27 l-10 25 -8 -35 c-4 -19 -8 -78 -9
-130 -1 -52 -3 -106 -4 -120 -2 -14 -4 -40 -4 -59 -1 -19 -5 -32 -8 -29 -3 3
-8 75 -10 160 -3 84 -6 187 -8 228 l-3 75 -164 2 c-90 2 -195 3 -233 3 -38 0
-67 2 -64 5 3 3 65 10 139 17 74 6 148 12 164 14 17 1 38 3 48 3 27 1 20 21
-8 21 -16 0 -25 6 -25 15 0 8 -6 15 -14 15 -8 0 -17 9 -21 19 -3 10 -15 21
-25 24 -14 3 -20 14 -20 32 0 28 -50 85 -74 85 -21 0 -56 75 -56 119 0 30 -4
41 -15 41 -20 0 -19 37 1 58 21 20 1 30 -22 11 -11 -9 -14 -22 -10 -41 4 -23
2 -28 -13 -28 -27 0 -34 48 -10 68 24 21 24 39 -1 54 -23 15 -27 38 -6 38 8 0
17 7 20 16 9 24 7 28 -7 16 -19 -16 -53 53 -51 106 1 25 -2 38 -7 31 -4 -7 -5
-17 -2 -23 4 -5 -1 -7 -10 -3 -53 22 -52 18 12 -30 2 -2 2 -5 -1 -8 -2 -3 -20
6 -38 20 -23 17 -41 23 -54 19 -19 -6 -19 -4 3 15 22 20 23 21 4 21 -11 0 -22
-2 -24 -4z m-39 -430 c0 -2 -7 -7 -16 -10 -8 -3 -12 -2 -9 4 6 10 25 14 25 6z
m397 -232 c-3 -3 -12 -4 -19 -1 -8 3 -5 6 6 6 11 1 17 -2 13 -5z m-247 -84 c0
-5 -4 -10 -10 -10 -5 0 -10 5 -10 10 0 6 5 10 10 10 6 0 10 -4 10 -10z m460
-35 c0 -8 -4 -15 -10 -15 -5 0 -10 7 -10 15 0 8 5 15 10 15 6 0 10 -7 10 -15z
m140 -209 c0 -2 -7 -6 -15 -10 -8 -3 -15 -1 -15 4 0 6 7 10 15 10 8 0 15 -2
15 -4z m163 -3 c-7 -2 -19 -2 -25 0 -7 3 -2 5 12 5 14 0 19 -2 13 -5z m-248
-253 c0 -22 -29 -18 -33 3 -3 14 1 18 15 15 10 -2 18 -10 18 -18z m184 1 c8
-5 -14 -9 -57 -10 -39 -1 -73 3 -77 9 -8 12 114 14 134 1z m323 -173 c-5 -75
-18 -80 -20 -8 -1 42 2 60 11 60 8 0 11 -16 9 -52z"/>
<path d="M3324 3173 c-9 -14 -8 -20 4 -29 14 -10 13 -13 -6 -23 -12 -7 -22 -8
-22 -2 0 5 6 12 13 14 9 4 9 6 -1 6 -7 1 -17 -10 -22 -24 -5 -14 -16 -25 -25
-25 -8 0 -15 -5 -15 -11 0 -5 -4 -8 -9 -5 -5 3 -11 -1 -15 -9 -7 -19 -2 -19
40 1 32 15 36 15 79 -6 25 -12 53 -32 61 -45 10 -16 28 -24 61 -29 26 -3 49
-3 52 1 3 5 18 14 33 22 36 18 33 66 -8 114 -39 49 -65 54 -135 30 -33 -11
-59 -17 -59 -13 0 4 7 11 16 14 9 4 14 9 11 13 -4 3 -13 0 -22 -7 -9 -7 -19
-9 -23 -5 -4 4 -1 10 6 12 6 3 12 9 12 14 0 15 -14 10 -26 -8z"/>
<path d="M3010 3170 c0 -5 5 -10 11 -10 5 0 7 5 4 10 -3 6 -8 10 -11 10 -2 0
-4 -4 -4 -10z"/>
<path d="M3620 3127 c0 -2 9 -28 20 -60 27 -76 25 -94 -11 -128 -36 -33 -46
-35 -70 -13 -19 17 -39 11 -39 -12 0 -9 11 -14 30 -14 17 0 30 -4 30 -10 0 -5
8 -10 19 -10 23 0 112 -46 128 -67 6 -8 9 -21 7 -28 -11 -28 13 -51 55 -53 25
-2 41 2 41 9 0 13 119 3 134 -12 10 -9 -65 -5 -100 6 -12 4 -24 2 -28 -3 -8
-13 43 -67 70 -76 39 -12 51 -38 57 -121 6 -91 29 -232 58 -351 10 -45 19
-112 19 -150 0 -54 5 -76 25 -111 14 -23 29 -44 33 -44 4 -1 18 -3 31 -4 32
-3 49 -28 43 -61 -2 -14 -44 -67 -91 -119 -65 -70 -103 -123 -151 -210 -50
-90 -78 -128 -121 -166 -77 -67 -106 -112 -119 -187 -6 -34 -19 -82 -29 -105
-17 -37 -25 -45 -82 -66 -83 -31 -127 -60 -219 -142 -76 -67 -167 -120 -227
-134 -29 -6 -33 -4 -33 15 0 12 -7 50 -17 84 -18 69 -12 122 12 112 8 -3 15
-2 15 3 0 4 -42 11 -92 14 -115 7 -222 40 -388 117 -205 96 -239 97 -372 18
-143 -85 -244 -101 -372 -59 -150 49 -223 99 -290 201 -64 96 -66 97 -246 29
-109 -40 -203 -44 -267 -11 -51 27 -106 90 -154 180 -20 37 -59 108 -88 157
-60 104 -68 129 -50 151 22 26 161 13 284 -26 55 -18 132 -34 173 -37 l72 -6
0 28 c0 15 8 40 17 56 18 29 17 30 -12 58 -17 15 -41 43 -55 61 -14 18 -37 47
-52 64 -15 17 -45 56 -65 86 -21 30 -41 57 -44 60 -4 3 -23 35 -43 73 -26 47
-33 69 -24 71 68 21 180 63 194 73 17 12 17 14 -2 28 -10 8 -14 15 -7 15 6 0
15 -4 18 -10 7 -12 35 -13 35 -2 0 5 -11 15 -25 22 -13 7 -24 16 -23 19 3 28
-4 42 -18 37 -11 -4 -14 -1 -10 12 3 9 1 24 -4 32 -14 21 -13 -50 1 -87 7 -20
7 -25 -1 -17 -6 6 -17 55 -25 110 -8 54 -27 132 -42 172 l-28 74 -95 -7 c-55
-4 -103 -13 -117 -22 -34 -22 -59 -70 -78 -145 -10 -37 -29 -85 -44 -107 -14
-21 -48 -73 -76 -115 -61 -93 -100 -116 -196 -116 -78 0 -132 23 -188 79 -23
23 -42 41 -44 41 -14 0 10 -294 33 -407 39 -186 87 -325 177 -510 80 -166 250
-412 274 -397 5 3 6 10 3 16 -5 7 -2 8 5 3 9 -5 10 -10 2 -18 -13 -13 6 -50
21 -41 6 4 8 3 4 -4 -8 -14 215 -224 232 -217 7 3 11 1 8 -4 -3 -5 18 -27 47
-49 79 -60 105 -74 118 -66 7 4 9 3 6 -3 -9 -14 2 -23 116 -83 85 -45 100 -50
115 -39 15 12 16 12 4 -2 -11 -15 -4 -20 55 -44 246 -100 512 -158 703 -154
l65 2 -85 8 c-47 4 -96 12 -110 18 -21 10 -19 10 15 5 22 -4 115 -7 207 -8 91
-1 165 -3 163 -5 -2 -2 -39 -7 -82 -12 -65 -7 -58 -7 47 -3 277 10 601 108
870 264 118 68 296 206 400 310 114 114 234 265 224 281 -4 7 -3 10 2 6 14 -8
111 144 170 268 87 183 142 361 169 545 15 96 18 158 8 130 -3 -8 -11 -18 -17
-22 -8 -5 -8 -10 1 -19 13 -13 7 -39 -9 -39 -7 0 -6 5 1 13 20 25 -2 27 -25 2
-13 -14 -29 -22 -37 -19 -8 3 -22 35 -31 72 -10 37 -41 137 -71 222 -53 152
-54 157 -56 275 -1 70 3 140 11 167 6 26 10 52 8 58 -2 6 -32 13 -66 15 -35 2
-76 12 -92 21 -25 16 -30 25 -36 81 -6 62 0 113 14 113 4 0 29 -18 55 -40 48
-39 70 -43 81 -12 3 9 9 23 12 30 4 8 -3 12 -19 12 -29 0 -79 21 -122 50 -38
25 -43 25 -47 -2 -2 -17 -9 -22 -25 -20 -29 4 -29 4 4 -63 l27 -55 -22 -16
c-12 -8 -19 -20 -16 -26 5 -7 2 -8 -5 -4 -7 5 -20 1 -30 -8 -16 -14 -19 -12
-45 37 -26 48 -28 56 -19 112 11 76 5 102 -29 120 -16 7 -28 13 -28 12z m200
-373 c0 -2 -7 -4 -15 -4 -8 0 -15 4 -15 10 0 5 7 7 15 4 8 -4 15 -8 15 -10z
m173 -65 c-6 -6 -9 -1 -7 13 3 33 6 36 11 14 3 -10 1 -22 -4 -27z m224 -791
c-3 -8 -6 -5 -6 6 -1 11 2 17 5 13 3 -3 4 -12 1 -19z m-3597 -338 c0 -5 27
-54 60 -108 33 -55 60 -102 60 -105 0 -3 -16 -3 -35 0 -23 4 -43 0 -60 -11
-14 -9 -26 -15 -26 -14 -15 31 -23 248 -10 248 6 0 11 -4 11 -10z m105 -463
c8 -20 13 -37 10 -37 -5 0 -35 67 -35 78 0 11 10 -5 25 -41z m161 -249 c4 -7
3 -8 -4 -4 -7 4 -12 2 -12 -5 0 -7 -3 -10 -6 -6 -6 5 3 27 11 27 2 0 7 -5 11
-12z m981 -524 c-3 -3 -12 -4 -19 -1 -8 3 -5 6 6 6 11 1 17 -2 13 -5z"/>
<path d="M3063 3095 c-7 -8 -13 -16 -13 -19 0 -2 6 -6 13 -9 7 -3 13 5 13 19
1 13 1 24 0 24 0 -1 -7 -7 -13 -15z"/>
<path d="M2940 3045 c0 -5 5 -17 10 -25 5 -8 10 -10 10 -5 0 6 -5 17 -10 25
-5 8 -10 11 -10 5z"/>
<path d="M2964 3037 c3 -10 6 -28 6 -38 0 -19 2 -19 22 -5 12 9 31 16 42 16
11 0 16 3 13 7 -4 3 -2 12 4 20 9 9 8 13 0 13 -6 0 -11 -5 -11 -11 0 -6 -9 -8
-20 -4 -15 5 -18 3 -14 -9 9 -23 -5 -20 -28 7 -16 18 -19 19 -14 4z"/>
<path d="M3130 3036 c0 -12 28 -36 42 -36 7 0 19 9 26 20 15 24 9 26 -13 4
-15 -15 -17 -15 -35 1 -11 10 -20 15 -20 11z"/>
<path d="M3370 3016 c0 -9 5 -16 10 -16 6 0 10 4 10 9 0 6 -4 13 -10 16 -5 3
-10 -1 -10 -9z"/>
<path d="M3511 2874 c0 -11 3 -14 6 -6 3 7 2 16 -1 19 -3 4 -6 -2 -5 -13z"/>
<path d="M3545 2880 c-3 -5 -1 -10 4 -10 6 0 11 5 11 10 0 6 -2 10 -4 10 -3 0
-8 -4 -11 -10z"/>
<path d="M3593 2850 c3 -11 1 -18 -3 -15 -5 3 -10 0 -12 -7 -5 -13 52 -106 65
-107 5 -1 5 4 1 11 -5 7 -2 9 8 5 9 -3 23 2 33 13 16 17 16 21 2 34 -8 9 -18
21 -20 28 -4 10 -8 9 -16 -2 -9 -13 -11 -12 -11 5 -1 24 -23 55 -40 55 -7 0
-10 -8 -7 -20z"/>
<path d="M1680 2836 c0 -9 5 -16 10 -16 6 0 10 4 10 9 0 6 -4 13 -10 16 -5 3
-10 -1 -10 -9z"/>
<path d="M3520 2846 c0 -2 7 -6 15 -10 8 -3 15 -1 15 4 0 6 -7 10 -15 10 -8 0
-15 -2 -15 -4z"/>
<path d="M2572 2698 c-7 -7 -12 -20 -12 -29 0 -9 -10 -24 -22 -33 -13 -9 -16
-14 -8 -10 37 18 70 49 70 66 0 21 -11 23 -28 6z"/>
<path d="M1816 2671 c-3 -5 3 -11 13 -14 14 -3 18 -1 14 9 -6 16 -19 18 -27 5z"/>
<path d="M1897 2593 c-12 -11 -8 -23 8 -23 8 0 15 7 15 15 0 16 -12 20 -23 8z"/>
<path d="M1935 2550 c-3 -5 1 -10 10 -10 9 0 13 5 10 10 -3 6 -8 10 -10 10 -2
0 -7 -4 -10 -10z"/>
<path d="M2035 2470 c-3 -5 -1 -10 4 -10 6 0 11 5 11 10 0 6 -2 10 -4 10 -3 0
-8 -4 -11 -10z"/>
<path d="M2266 2465 c-4 -11 -2 -14 6 -9 8 5 9 2 5 -10 -4 -10 -3 -15 3 -11 5
3 20 -11 33 -32 13 -21 33 -45 43 -53 16 -12 16 -11 -2 10 -11 14 -34 46 -51
73 -23 34 -32 43 -37 32z"/>
<path d="M1280 2363 c0 -6 8 -17 18 -24 16 -13 16 -13 2 6 -8 11 -16 22 -17
24 -2 2 -3 0 -3 -6z"/>
<path d="M1309 2313 c-13 -16 -12 -17 4 -4 9 7 17 15 17 17 0 8 -8 3 -21 -13z"/>
<path d="M2320 2289 c0 -5 5 -7 10 -4 6 3 10 8 10 11 0 2 -4 4 -10 4 -5 0 -10
-5 -10 -11z"/>
<path d="M3137 2153 c-3 -5 14 -8 38 -8 24 0 41 3 38 8 -2 4 -19 7 -38 7 -19
0 -36 -3 -38 -7z"/>
<path d="M4262 2125 c0 -16 2 -22 5 -12 2 9 2 23 0 30 -3 6 -5 -1 -5 -18z"/>
<path d="M3212 2118 c-8 -10 -4 -13 15 -15 15 0 22 2 17 6 -5 3 -12 10 -15 14
-3 4 -11 2 -17 -5z"/>
<path d="M3187 2044 c-8 -13 20 -41 30 -30 3 3 1 6 -5 6 -6 0 -12 8 -14 18 -2
11 -6 13 -11 6z"/>
<path d="M3231 981 c-10 -18 -10 -25 0 -35 9 -8 10 -8 4 3 -4 7 -2 17 5 21 7
4 10 14 8 21 -3 10 -9 7 -17 -10z"/>
<path d="M3130 760 c-18 -12 -2 -12 25 0 13 6 15 9 5 9 -8 0 -22 -4 -30 -9z"/>
</g>
</svg>
